<svg xmlns="http://www.w3.org/2000/svg" aria-hidden="true" overflow="hidden" style="position:absolute;width:0;height:0">
    <defs>
        <symbol id="icon-arrow-right" width="7" height="12" viewBox="0 0 7 12" fill="none"
            xmlns="http://www.w3.org/2000/svg">
            <path d="M0.75 0.750081L5.70833 5.70841L0.75 10.6667" stroke="white" stroke-width="1.5"
                stroke-linecap="round" stroke-linejoin="round" />
        </symbol>

        <symbol id="icon-coffee-go" width="49" height="49" viewBox="0 0 49 49" fill="none"
            xmlns="http://www.w3.org/2000/svg">
            <path
                d="M13.9814 30.1325H35.3325M13.6371 26.1149H35.677M36.4111 17.5506L34.8035 36.3064C34.6257 38.3808 34.5367 39.4178 34.0757 40.2027C33.6697 40.8938 33.067 41.4478 32.3438 41.7932C31.5224 42.1855 30.4814 42.1856 28.3994 42.1856H20.9162C18.8342 42.1856 17.7925 42.1855 16.9711 41.7932C16.2479 41.4478 15.6448 40.8938 15.2388 40.2027C14.7778 39.4178 14.6889 38.3808 14.5111 36.3064L12.9034 17.5506C12.7997 16.3399 12.7478 15.7344 12.9516 15.2673C13.1307 14.857 13.4417 14.5182 13.8353 14.3048C14.2833 14.0618 14.8909 14.0618 16.106 14.0618H33.2092C34.4243 14.0618 35.0322 14.0618 35.4802 14.3048C35.8738 14.5182 36.1841 14.857 36.3631 15.2673C36.5669 15.7344 36.5149 16.3399 36.4111 17.5506ZM35.1982 14.0618H14.1168C12.3056 14.0618 11.4 14.0618 10.874 13.6827C10.4102 13.3485 10.111 12.8326 10.0509 12.264C9.98281 11.6193 10.4325 10.8331 11.3311 9.2605C12.0024 8.08571 12.3381 7.49832 12.8091 7.07039C13.2303 6.68782 13.7277 6.39901 14.2688 6.22318C14.8741 6.02649 15.5504 6.02649 16.9035 6.02649H32.4122C33.7652 6.02649 34.4417 6.02649 35.047 6.22318C35.5881 6.39901 36.0852 6.68782 36.5063 7.07039C36.9774 7.49832 37.313 8.08571 37.9843 9.2605C38.8829 10.833 39.3324 11.6193 39.2643 12.264C39.2042 12.8326 38.9054 13.3485 38.4416 13.6827C37.9156 14.0618 37.0094 14.0618 35.1982 14.0618Z"
                stroke="#FF7500" stroke-width="3" stroke-linecap="round" stroke-linejoin="round" />
        </symbol>

        <symbol id="icon-car" width="48" height="48" viewBox="0 0 48 48" fill="none" xmlns="http://www.w3.org/2000/svg">
            <path
                d="M6 22H42M40 34V23.3582C40 22.8511 40.0002 22.5977 39.9688 22.3484C39.9408 22.127 39.8941 21.9081 39.8297 21.6944C39.7571 21.4538 39.6539 21.2223 39.448 20.759L36.3555 13.8008C35.744 12.4251 35.4383 11.737 34.9551 11.2327C34.5279 10.7868 34.0041 10.446 33.4232 10.2367C32.766 10 32.0126 10 30.5071 10H17.4922C15.9867 10 15.2343 10 14.5771 10.2367C13.9963 10.446 13.4721 10.7868 13.0449 11.2327C12.5617 11.737 12.2557 12.4251 11.6443 13.8008L8.55176 20.759C8.34582 21.2223 8.24244 21.4538 8.16992 21.6944C8.10551 21.9081 8.05937 22.127 8.03144 22.3484C8 22.5977 8 22.8511 8 23.3582V34M40 34L8 34M40 34V36C40 38.2091 38.2091 40 36 40C33.7909 40 32 38.2091 32 36V34M8 34V36C8 38.2091 9.79086 40 12 40C14.2091 40 16 38.2091 16 36V34"
                stroke="#FF6B00" stroke-width="3" stroke-linecap="round" stroke-linejoin="round" />
        </symbol>

        <symbol id="icon-bank" width="48" height="48" viewBox="0 0 48 48" fill="none"
            xmlns="http://www.w3.org/2000/svg">
            <path fill-rule="evenodd" clip-rule="evenodd"
                d="M22.8302 4.79021C23.5925 4.55593 24.4075 4.55593 25.1698 4.79021L31.1412 6.62555C34.2565 7.58303 37.2151 8.99075 39.9232 10.8041C42.0295 12.2144 41.0311 15.4999 38.4962 15.4999H9.50381C6.96891 15.4999 5.97052 12.2144 8.07682 10.8041C10.7849 8.99076 13.7435 7.58303 16.8588 6.62555L22.8302 4.79021ZM24.2884 7.65782C24.1005 7.60006 23.8995 7.60006 23.7116 7.65782L17.7401 9.49316C15.3785 10.219 13.1158 11.2291 11.0014 12.4999H36.9986C34.8842 11.2291 32.6215 10.219 30.2599 9.49316L24.2884 7.65782Z"
                fill="#FF6B00" />
            <path
                d="M8.5 41.9999C8.5 41.1715 9.17157 40.4999 10 40.4999H38C38.8284 40.4999 39.5 41.1715 39.5 41.9999C39.5 42.8284 38.8284 43.4999 38 43.4999H10C9.17157 43.4999 8.5 42.8284 8.5 41.9999Z"
                fill="#FF6B00" />
            <path
                d="M12.5 33.9999C12.5 34.8284 13.1716 35.4999 14 35.4999C14.8284 35.4999 15.5 34.8284 15.5 33.9999L15.5 21.9999C15.5 21.1715 14.8284 20.4999 14 20.4999C13.1716 20.4999 12.5 21.1715 12.5 21.9999L12.5 33.9999Z"
                fill="#FF6B00" />
            <path
                d="M24 35.4999C23.1716 35.4999 22.5 34.8284 22.5 33.9999L22.5 21.9999C22.5 21.1715 23.1716 20.4999 24 20.4999C24.8284 20.4999 25.5 21.1715 25.5 21.9999V33.9999C25.5 34.8284 24.8284 35.4999 24 35.4999Z"
                fill="#FF6B00" />
            <path
                d="M32.5 33.9999C32.5 34.8284 33.1716 35.4999 34 35.4999C34.8284 35.4999 35.5 34.8284 35.5 33.9999V21.9999C35.5 21.1715 34.8284 20.4999 34 20.4999C33.1716 20.4999 32.5 21.1715 32.5 21.9999V33.9999Z"
                fill="#FF6B00" />
        </symbol>

        <symbol id="icon-wifi" width="48" height="48" viewBox="0 0 48 48" fill="none"
            xmlns="http://www.w3.org/2000/svg">
            <path
                d="M16.6865 29.1801C17.6182 28.181 18.7447 27.3834 19.9966 26.8365C21.2484 26.2895 22.5986 26.0048 23.9647 26C25.3308 25.9953 26.6835 26.2705 27.9392 26.8087C29.1948 27.3468 30.3271 28.1365 31.2658 29.1291M12.2988 23.0881C13.7895 21.4895 15.5919 20.2134 17.5949 19.3383C19.5979 18.4632 21.7587 18.0078 23.9445 18.0001C26.1302 17.9925 28.2942 18.4328 30.3033 19.2939C32.3123 20.1549 34.124 21.4185 35.6258 23.0066M6.44727 17.6321C8.6833 15.2342 11.3869 13.32 14.3914 12.0073C17.3958 10.6947 20.6376 10.0116 23.9162 10.0001C27.1948 9.9887 30.4409 10.6492 33.4544 11.9408C36.4679 13.2324 39.1846 15.1278 41.4373 17.51M24 38C22.8954 38 22 37.1046 22 36C22 34.8955 22.8954 34 24 34C25.1046 34 26 34.8955 26 36C26 37.1046 25.1046 38 24 38Z"
                stroke="#FF6B00" stroke-width="3" stroke-linecap="round" stroke-linejoin="round" />
        </symbol>


        <symbol id="icon-facebook" viewBox="0 0 32 32" xmlns="http://www.w3.org/2000/svg">
            <path fill-rule="evenodd" clip-rule="evenodd"
                d="M0 5C0 2.23858 2.23858 0 5 0H27C29.7614 0 32 2.23858 32 5V27C32 29.7614 29.7614 32 27 32H5C2.23858 32 0 29.7614 0 27V5ZM16 8C20.4 8 24 11.6 24 16C24 20 21.1 23.4 17.1 24V18.3H19L19.4 16H17.2V14.5C17.2 13.9 17.5 13.3 18.5 13.3H19.5V11.3C19.5 11.3 18.6 11.1 17.7 11.1C15.9 11.1 14.7 12.2 14.7 14.2V16H12.7V18.3H14.7V23.9C10.9 23.3 8 20 8 16C8 11.6 11.6 8 16 8Z" />
        </symbol>

        <symbol id="icon-instagram" viewBox="0 0 32 32" xmlns="http://www.w3.org/2000/svg">
            <path
                d="M16 18.8C14.5 18.8 13.2 17.6 13.2 16C13.2 14.5 14.4 13.2 16 13.2C17.5 13.2 18.8 14.4 18.8 16C18.8 17.5 17.5 18.8 16 18.8Z" />
            <path fill-rule="evenodd" clip-rule="evenodd"
                d="M19.4 9.2H12.6C11.8 9.3 11.4 9.4 11.1 9.5C10.7 9.6 10.4 9.8 10.1 10.1C9.86261 10.3374 9.75045 10.5748 9.61489 10.8617C9.57916 10.9373 9.5417 11.0166 9.5 11.1C9.48453 11.1464 9.46667 11.1952 9.44752 11.2475C9.34291 11.5333 9.2 11.9238 9.2 12.6V19.4C9.3 20.2 9.4 20.6 9.5 20.9C9.6 21.3 9.8 21.6 10.1 21.9C10.3374 22.1374 10.5748 22.2495 10.8617 22.3851C10.9374 22.4209 11.0165 22.4583 11.1 22.5C11.1464 22.5155 11.1952 22.5333 11.2475 22.5525C11.5333 22.6571 11.9238 22.8 12.6 22.8H19.4C20.2 22.7 20.6 22.6 20.9 22.5C21.3 22.4 21.6 22.2 21.9 21.9C22.1374 21.6626 22.2495 21.4252 22.3851 21.1383C22.4209 21.0626 22.4583 20.9835 22.5 20.9C22.5155 20.8536 22.5333 20.8048 22.5525 20.7525C22.6571 20.4667 22.8 20.0762 22.8 19.4V12.6C22.7 11.8 22.6 11.4 22.5 11.1C22.4 10.7 22.2 10.4 21.9 10.1C21.6626 9.86261 21.4252 9.75045 21.1383 9.61488C21.0627 9.57918 20.9833 9.54167 20.9 9.5C20.8536 9.48453 20.8048 9.46666 20.7525 9.44752C20.4667 9.3429 20.0762 9.2 19.4 9.2ZM16 11.7C13.6 11.7 11.7 13.6 11.7 16C11.7 18.4 13.6 20.3 16 20.3C18.4 20.3 20.3 18.4 20.3 16C20.3 13.6 18.4 11.7 16 11.7ZM21.4 11.6C21.4 12.1523 20.9523 12.6 20.4 12.6C19.8477 12.6 19.4 12.1523 19.4 11.6C19.4 11.0477 19.8477 10.6 20.4 10.6C20.9523 10.6 21.4 11.0477 21.4 11.6Z" />
            <path fill-rule="evenodd" clip-rule="evenodd"
                d="M0 5C0 2.23858 2.23858 0 5 0H27C29.7614 0 32 2.23858 32 5V27C32 29.7614 29.7614 32 27 32H5C2.23858 32 0 29.7614 0 27V5ZM12.6 7.7H19.4C20.3 7.8 20.9 7.9 21.4 8.1C22 8.4 22.4 8.6 22.9 9.1C23.4 9.6 23.7 10.1 23.9 10.6C24.1 11.1 24.3 11.7 24.3 12.6V19.4C24.2 20.3 24.1 20.9 23.9 21.4C23.6 22 23.4 22.4 22.9 22.9C22.4 23.4 21.9 23.7 21.4 23.9C20.9 24.1 20.3 24.3 19.4 24.3H12.6C11.7 24.2 11.1 24.1 10.6 23.9C10 23.6 9.6 23.4 9.1 22.9C8.6 22.4 8.3 21.9 8.1 21.4C7.9 20.9 7.7 20.3 7.7 19.4V12.6C7.8 11.7 7.9 11.1 8.1 10.6C8.4 10 8.6 9.6 9.1 9.1C9.6 8.6 10.1 8.3 10.6 8.1C11.1 7.9 11.7 7.7 12.6 7.7Z" />
        </symbol>
    </defs>
</svg>