<svg xmlns="http://www.w3.org/2000/svg" aria-hidden="true" overflow="hidden" style="position:absolute;width:0;height:0">
    <defs>
        <symbol id="icon-arrow-right" width="7" height="12" viewBox="0 0 7 12" fill="none"
            xmlns="http://www.w3.org/2000/svg">
            <path d="M0.75 0.750081L5.70833 5.70841L0.75 10.6667" stroke="white" stroke-width="1.5"
                stroke-linecap="round" stroke-linejoin="round" />
        </symbol>

        <symbol id="icon-coffee-go" width="49" height="49" viewBox="0 0 49 49" fill="none"
            xmlns="http://www.w3.org/2000/svg">
            <path
                d="M13.9814 30.1325H35.3325M13.6371 26.1149H35.677M36.4111 17.5506L34.8035 36.3064C34.6257 38.3808 34.5367 39.4178 34.0757 40.2027C33.6697 40.8938 33.067 41.4478 32.3438 41.7932C31.5224 42.1855 30.4814 42.1856 28.3994 42.1856H20.9162C18.8342 42.1856 17.7925 42.1855 16.9711 41.7932C16.2479 41.4478 15.6448 40.8938 15.2388 40.2027C14.7778 39.4178 14.6889 38.3808 14.5111 36.3064L12.9034 17.5506C12.7997 16.3399 12.7478 15.7344 12.9516 15.2673C13.1307 14.857 13.4417 14.5182 13.8353 14.3048C14.2833 14.0618 14.8909 14.0618 16.106 14.0618H33.2092C34.4243 14.0618 35.0322 14.0618 35.4802 14.3048C35.8738 14.5182 36.1841 14.857 36.3631 15.2673C36.5669 15.7344 36.5149 16.3399 36.4111 17.5506ZM35.1982 14.0618H14.1168C12.3056 14.0618 11.4 14.0618 10.874 13.6827C10.4102 13.3485 10.111 12.8326 10.0509 12.264C9.98281 11.6193 10.4325 10.8331 11.3311 9.2605C12.0024 8.08571 12.3381 7.49832 12.8091 7.07039C13.2303 6.68782 13.7277 6.39901 14.2688 6.22318C14.8741 6.02649 15.5504 6.02649 16.9035 6.02649H32.4122C33.7652 6.02649 34.4417 6.02649 35.047 6.22318C35.5881 6.39901 36.0852 6.68782 36.5063 7.07039C36.9774 7.49832 37.313 8.08571 37.9843 9.2605C38.8829 10.833 39.3324 11.6193 39.2643 12.264C39.2042 12.8326 38.9054 13.3485 38.4416 13.6827C37.9156 14.0618 37.0094 14.0618 35.1982 14.0618Z"
                stroke="#FF7500" stroke-width="3" stroke-linecap="round" stroke-linejoin="round" />
        </symbol>

        <symbol id="icon-car" width="48" height="48" viewBox="0 0 48 48" fill="none" xmlns="http://www.w3.org/2000/svg">
            <path
                d="M6 22H42M40 34V23.3582C40 22.8511 40.0002 22.5977 39.9688 22.3484C39.9408 22.127 39.8941 21.9081 39.8297 21.6944C39.7571 21.4538 39.6539 21.2223 39.448 20.759L36.3555 13.8008C35.744 12.4251 35.4383 11.737 34.9551 11.2327C34.5279 10.7868 34.0041 10.446 33.4232 10.2367C32.766 10 32.0126 10 30.5071 10H17.4922C15.9867 10 15.2343 10 14.5771 10.2367C13.9963 10.446 13.4721 10.7868 13.0449 11.2327C12.5617 11.737 12.2557 12.4251 11.6443 13.8008L8.55176 20.759C8.34582 21.2223 8.24244 21.4538 8.16992 21.6944C8.10551 21.9081 8.05937 22.127 8.03144 22.3484C8 22.5977 8 22.8511 8 23.3582V34M40 34L8 34M40 34V36C40 38.2091 38.2091 40 36 40C33.7909 40 32 38.2091 32 36V34M8 34V36C8 38.2091 9.79086 40 12 40C14.2091 40 16 38.2091 16 36V34"
                stroke="#FF6B00" stroke-width="3" stroke-linecap="round" stroke-linejoin="round" />
        </symbol>

        <symbol id="icon-bank" width="48" height="48" viewBox="0 0 48 48" fill="none"
            xmlns="http://www.w3.org/2000/svg">
            <path fill-rule="evenodd" clip-rule="evenodd"
                d="M22.8302 4.79021C23.5925 4.55593 24.4075 4.55593 25.1698 4.79021L31.1412 6.62555C34.2565 7.58303 37.2151 8.99075 39.9232 10.8041C42.0295 12.2144 41.0311 15.4999 38.4962 15.4999H9.50381C6.96891 15.4999 5.97052 12.2144 8.07682 10.8041C10.7849 8.99076 13.7435 7.58303 16.8588 6.62555L22.8302 4.79021ZM24.2884 7.65782C24.1005 7.60006 23.8995 7.60006 23.7116 7.65782L17.7401 9.49316C15.3785 10.219 13.1158 11.2291 11.0014 12.4999H36.9986C34.8842 11.2291 32.6215 10.219 30.2599 9.49316L24.2884 7.65782Z"
                fill="#FF6B00" />
            <path
                d="M8.5 41.9999C8.5 41.1715 9.17157 40.4999 10 40.4999H38C38.8284 40.4999 39.5 41.1715 39.5 41.9999C39.5 42.8284 38.8284 43.4999 38 43.4999H10C9.17157 43.4999 8.5 42.8284 8.5 41.9999Z"
                fill="#FF6B00" />
            <path
                d="M12.5 33.9999C12.5 34.8284 13.1716 35.4999 14 35.4999C14.8284 35.4999 15.5 34.8284 15.5 33.9999L15.5 21.9999C15.5 21.1715 14.8284 20.4999 14 20.4999C13.1716 20.4999 12.5 21.1715 12.5 21.9999L12.5 33.9999Z"
                fill="#FF6B00" />
            <path
                d="M24 35.4999C23.1716 35.4999 22.5 34.8284 22.5 33.9999L22.5 21.9999C22.5 21.1715 23.1716 20.4999 24 20.4999C24.8284 20.4999 25.5 21.1715 25.5 21.9999V33.9999C25.5 34.8284 24.8284 35.4999 24 35.4999Z"
                fill="#FF6B00" />
            <path
                d="M32.5 33.9999C32.5 34.8284 33.1716 35.4999 34 35.4999C34.8284 35.4999 35.5 34.8284 35.5 33.9999V21.9999C35.5 21.1715 34.8284 20.4999 34 20.4999C33.1716 20.4999 32.5 21.1715 32.5 21.9999V33.9999Z"
                fill="#FF6B00" />
        </symbol>

        <symbol id="icon-wifi" width="48" height="48" viewBox="0 0 48 48" fill="none"
            xmlns="http://www.w3.org/2000/svg">
            <path
                d="M16.6865 29.1801C17.6182 28.181 18.7447 27.3834 19.9966 26.8365C21.2484 26.2895 22.5986 26.0048 23.9647 26C25.3308 25.9953 26.6835 26.2705 27.9392 26.8087C29.1948 27.3468 30.3271 28.1365 31.2658 29.1291M12.2988 23.0881C13.7895 21.4895 15.5919 20.2134 17.5949 19.3383C19.5979 18.4632 21.7587 18.0078 23.9445 18.0001C26.1302 17.9925 28.2942 18.4328 30.3033 19.2939C32.3123 20.1549 34.124 21.4185 35.6258 23.0066M6.44727 17.6321C8.6833 15.2342 11.3869 13.32 14.3914 12.0073C17.3958 10.6947 20.6376 10.0116 23.9162 10.0001C27.1948 9.9887 30.4409 10.6492 33.4544 11.9408C36.4679 13.2324 39.1846 15.1278 41.4373 17.51M24 38C22.8954 38 22 37.1046 22 36C22 34.8955 22.8954 34 24 34C25.1046 34 26 34.8955 26 36C26 37.1046 25.1046 38 24 38Z"
                stroke="#FF6B00" stroke-width="3" stroke-linecap="round" stroke-linejoin="round" />
        </symbol>

        <symbol id="icon-coffee" width="30" height="30" viewBox="0 0 30 30" fill="none"
            xmlns="http://www.w3.org/2000/svg">
            <path
                d="M5 24C4.44772 24 4 24.4477 4 25C4 25.5523 4.44772 26 5 26V25V24ZM22.5 26C23.0523 26 23.5 25.5523 23.5 25C23.5 24.4477 23.0523 24 22.5 24V25V26ZM22.5 11.25V10.25C21.9477 10.25 21.5 10.6977 21.5 11.25H22.5ZM22.5 17.5H21.5C21.5 18.0523 21.9477 18.5 22.5 18.5V17.5ZM19.6444 4.19721C19.8914 3.70324 19.6912 3.10256 19.1972 2.85557C18.7032 2.60858 18.1026 2.80881 17.8556 3.30279L18.75 3.75L19.6444 4.19721ZM16.6056 5.80279C16.3586 6.29676 16.5588 6.89744 17.0528 7.14443C17.5468 7.39142 18.1474 7.19119 18.3944 6.69721L17.5 6.25L16.6056 5.80279ZM15.8944 4.19721C16.1414 3.70324 15.9412 3.10256 15.4472 2.85557C14.9532 2.60858 14.3526 2.80881 14.1056 3.30279L15 3.75L15.8944 4.19721ZM12.8556 5.80279C12.6086 6.29676 12.8088 6.89744 13.3028 7.14443C13.7968 7.39142 14.3974 7.19119 14.6444 6.69721L13.75 6.25L12.8556 5.80279ZM12.1444 4.19721C12.3914 3.70324 12.1912 3.10256 11.6972 2.85557C11.2032 2.60858 10.6026 2.80881 10.3556 3.30279L11.25 3.75L12.1444 4.19721ZM9.10557 5.80279C8.85858 6.29676 9.05881 6.89744 9.55279 7.14443C10.0468 7.39142 10.6474 7.19119 10.8944 6.69721L10 6.25L9.10557 5.80279ZM5 25V26H22.5V25V24H5V25ZM22.5 11.25V12.25H24.375V11.25V10.25H22.5V11.25ZM24.375 17.5V16.5H22.5V17.5V18.5H24.375V17.5ZM22.5 17.5H23.5V11.25H22.5H21.5V17.5H22.5ZM27.5 14.375H26.5C26.5 15.5486 25.5486 16.5 24.375 16.5V17.5V18.5C26.6532 18.5 28.5 16.6532 28.5 14.375H27.5ZM24.375 11.25V12.25C25.5486 12.25 26.5 13.2014 26.5 14.375H27.5H28.5C28.5 12.0968 26.6532 10.25 24.375 10.25V11.25ZM22.5 11.1539H21.5V16.25H22.5H23.5V11.1539H22.5ZM5 16.25H6V11.1539H5H4V16.25H5ZM6.15356 10V11H21.3459V10V9H6.15356V10ZM5 11.1539H6C6 11.0686 6.06894 11 6.15356 11V10V9C4.96368 9 4 9.96468 4 11.1539H5ZM13.75 25V24C9.46979 24 6 20.5302 6 16.25H5H4C4 21.6348 8.36523 26 13.75 26V25ZM22.5 16.25H21.5C21.5 20.5302 18.0302 24 13.75 24V25V26C19.1348 26 23.5 21.6348 23.5 16.25H22.5ZM22.5 11.1539H23.5C23.5 9.96404 22.5351 9 21.3459 9V10V11C21.4311 11 21.5 11.0692 21.5 11.1539H22.5ZM18.75 3.75L17.8556 3.30279L16.6056 5.80279L17.5 6.25L18.3944 6.69721L19.6444 4.19721L18.75 3.75ZM15 3.75L14.1056 3.30279L12.8556 5.80279L13.75 6.25L14.6444 6.69721L15.8944 4.19721L15 3.75ZM11.25 3.75L10.3556 3.30279L9.10557 5.80279L10 6.25L10.8944 6.69721L12.1444 4.19721L11.25 3.75Z"
                fill="white" />
        </symbol>

        <symbol id="icon-option" width="30" height="30" viewBox="0 0 30 30" fill="none"
            xmlns="http://www.w3.org/2000/svg">
            <path
                d="M3.75 7.75C3.19772 7.75 2.75 8.19772 2.75 8.75C2.75 9.30228 3.19772 9.75 3.75 9.75V7.75ZM11.8323 9.72107L10.9748 10.2356L11.8323 9.72107ZM18.1671 20.2791L17.3096 20.7935L17.3096 20.7935L18.1671 20.2791ZM26.2504 22.25C26.8027 22.25 27.2504 21.8023 27.2504 21.25C27.2504 20.6977 26.8027 20.25 26.2504 20.25V22.25ZM18.6327 20.9387L17.9723 21.6896L18.6327 20.9387ZM19.0771 21.1908L19.3814 20.2382L19.0771 21.1908ZM10.9221 8.80925L11.2263 7.85664L10.9221 8.80925ZM11.3672 9.06128L10.7069 9.81225L11.3672 9.06128ZM18.75 7.75C18.1977 7.75 17.75 8.19772 17.75 8.75C17.75 9.30228 18.1977 9.75 18.75 9.75V7.75ZM26.25 9.75C26.8023 9.75 27.25 9.30229 27.25 8.75C27.25 8.19772 26.8023 7.75 26.25 7.75V9.75ZM3.75 9.75H10.1176V7.75H3.75V9.75ZM10.9748 10.2356L17.3096 20.7935L19.0246 19.7646L12.6898 9.20657L10.9748 10.2356ZM19.8828 22.25H26.2504V20.25H19.8828V22.25ZM17.3096 20.7935C17.4894 21.0932 17.6818 21.4342 17.9723 21.6896L19.293 20.1877C19.3044 20.1977 19.2946 20.1939 19.2499 20.1287C19.199 20.0542 19.1362 19.9506 19.0246 19.7646L17.3096 20.7935ZM19.8828 20.25C19.665 20.25 19.5438 20.2496 19.453 20.2443C19.3734 20.2397 19.3657 20.2332 19.3814 20.2382L18.7729 22.1434C19.1421 22.2613 19.5363 22.25 19.8828 22.25V20.25ZM17.9723 21.6896C18.2041 21.8934 18.4759 22.0485 18.7729 22.1434L19.3814 20.2382C19.3501 20.2282 19.3201 20.2115 19.293 20.1877L17.9723 21.6896ZM10.1176 9.75C10.3354 9.75 10.4563 9.75039 10.5466 9.75569C10.6256 9.76032 10.6331 9.76672 10.6179 9.76185L11.2263 7.85664C10.8572 7.73877 10.4646 7.75 10.1176 7.75V9.75ZM12.6898 9.20657C12.5111 8.9088 12.3184 8.56611 12.0275 8.31031L10.7069 9.81225C10.6948 9.80168 10.7043 9.805 10.7491 9.87054C10.8002 9.94537 10.8628 10.0489 10.9748 10.2356L12.6898 9.20657ZM10.6179 9.76185C10.6506 9.7723 10.6809 9.78943 10.7069 9.81225L12.0275 8.31031C11.7946 8.10553 11.5219 7.95104 11.2263 7.85664L10.6179 9.76185ZM18.75 9.75L26.25 9.75V7.75L18.75 7.75V9.75Z"
                fill="white" />
        </symbol>

        <symbol id="icon-leaf" width="30" height="30" viewBox="0 0 30 30" fill="none"
            xmlns="http://www.w3.org/2000/svg">
            <path
                d="M23.5624 6.32476L24.5602 6.25825C24.5269 5.75837 24.1288 5.3603 23.6289 5.32697L23.5624 6.32476ZM8.53638 21.3507L7.67888 21.8652C7.76333 22.006 7.88113 22.1238 8.02188 22.2082L8.53638 21.3507ZM5.54289 22.9294C5.15237 23.3199 5.15237 23.953 5.54289 24.3436C5.93342 24.7341 6.56658 24.7341 6.95711 24.3436L5.54289 22.9294ZM14.0282 17.2725C14.4187 16.882 14.4187 16.2488 14.0282 15.8583C13.6377 15.4678 13.0045 15.4678 12.614 15.8583L14.0282 17.2725ZM22.5646 6.39127C22.9969 12.8758 21.4632 17.6162 18.9883 20.0912C17.7664 21.3131 16.305 21.9996 14.6718 22.1068C13.0272 22.2149 11.1285 21.7398 9.05087 20.4933L8.02188 22.2082C10.3637 23.6133 12.6634 24.2431 14.8029 24.1025C16.9539 23.9612 18.8622 23.0457 20.4025 21.5054C23.4518 18.4561 25.0117 13.0319 24.5602 6.25825L22.5646 6.39127ZM9.39387 20.8363C8.14731 18.7587 7.67223 16.8599 7.78027 15.2153C7.88755 13.5821 8.57403 12.1207 9.79591 10.8988C12.2709 8.42388 17.0113 6.89022 23.4959 7.32254L23.6289 5.32697C16.8553 4.87538 11.431 6.4353 8.3817 9.48461C6.84143 11.0249 5.92587 12.9333 5.78457 15.0842C5.64401 17.2237 6.27378 19.5234 7.67888 21.8652L9.39387 20.8363ZM6.95711 24.3436L14.0282 17.2725L12.614 15.8583L5.54289 22.9294L6.95711 24.3436Z"
                fill="white" />
        </symbol>

        <symbol id="icon-coffee-go-white" width="30" height="30" viewBox="0 0 30 30" fill="none"
            xmlns="http://www.w3.org/2000/svg">
            <path
                d="M8.69995 18.75H21.9857M8.48571 16.25H22.2M22.6568 10.9209L21.6565 22.5917C21.5458 23.8825 21.4905 24.5278 21.2036 25.0161C20.951 25.4462 20.576 25.7909 20.1259 26.0059C19.6148 26.25 18.9671 26.25 17.6715 26.25H13.0151C11.7196 26.25 11.0714 26.25 10.5603 26.0059C10.1102 25.7909 9.73498 25.4462 9.48236 25.0161C9.1955 24.5278 9.14017 23.8825 9.02953 22.5917L8.02917 10.9209C7.9646 10.1675 7.93235 9.79077 8.05915 9.50012C8.17056 9.24476 8.36409 9.03397 8.60901 8.90116C8.88777 8.75 9.26587 8.75 10.022 8.75H20.6644C21.4205 8.75 21.7988 8.75 22.0776 8.90116C22.3225 9.03397 22.5155 9.24476 22.6269 9.50012C22.7538 9.79077 22.7214 10.1675 22.6568 10.9209ZM21.9021 8.75H8.78418C7.65716 8.75 7.09368 8.74996 6.76635 8.5141C6.47775 8.30613 6.29157 7.98509 6.25419 7.63132C6.21181 7.23011 6.49162 6.74088 7.05078 5.76236C7.4685 5.03135 7.67736 4.66585 7.97048 4.39957C8.23253 4.16151 8.54208 3.9818 8.87878 3.87239C9.2554 3.75 9.67624 3.75 10.5182 3.75H20.1685C21.0104 3.75 21.4314 3.75 21.808 3.87239C22.1447 3.9818 22.454 4.16151 22.7161 4.39957C23.0092 4.66585 23.218 5.03135 23.6358 5.76236C24.1949 6.74088 24.4746 7.23011 24.4322 7.63132C24.3948 7.98509 24.2089 8.30613 23.9203 8.5141C23.593 8.74996 23.0291 8.75 21.9021 8.75Z"
                stroke="white" stroke-width="2" stroke-linecap="round" stroke-linejoin="round" />
        </symbol>

        <symbol id="icon-star" width="19" height="18" viewBox="0 0 19 18" fill="none"
            xmlns="http://www.w3.org/2000/svg">
            <path
                d="M14.4404 10.7222C14.2055 10.9499 14.0975 11.2792 14.1511 11.6021L14.9575 16.0652C15.0255 16.4435 14.8659 16.8263 14.5493 17.0449C14.239 17.2717 13.8263 17.2989 13.4879 17.1175L9.47028 15.022C9.33058 14.9476 9.17547 14.9077 9.01672 14.9032H8.77089C8.68562 14.9159 8.60216 14.9431 8.52596 14.9848L4.5074 17.0903C4.30874 17.19 4.08377 17.2254 3.86334 17.19C3.32632 17.0884 2.968 16.5768 3.05599 16.0371L3.86334 11.574C3.91686 11.2484 3.80891 10.9173 3.57396 10.6859L0.298332 7.511C0.0243798 7.24521 -0.0708685 6.84608 0.0543149 6.48595C0.17587 6.12673 0.486107 5.86457 0.86075 5.80561L5.36917 5.15157C5.71206 5.11619 6.01323 4.90755 6.16744 4.59913L8.15404 0.526133C8.20121 0.43542 8.26199 0.351965 8.33547 0.281209L8.41711 0.21771C8.45974 0.17054 8.50873 0.131533 8.56316 0.0997839L8.66203 0.0634988L8.81624 0H9.19814C9.53922 0.0353779 9.83948 0.239481 9.99642 0.544276L12.0093 4.59913C12.1545 4.89576 12.4366 5.10168 12.7622 5.15157L17.2707 5.80561C17.6517 5.86003 17.9701 6.1231 18.0961 6.48595C18.215 6.84971 18.1125 7.24884 17.8331 7.511L14.4404 10.7222Z"
                fill="#FF6B00" />
        </symbol>


        <symbol id="icon-facebook" viewBox="0 0 32 32" xmlns="http://www.w3.org/2000/svg">
            <path fill-rule="evenodd" clip-rule="evenodd"
                d="M0 5C0 2.23858 2.23858 0 5 0H27C29.7614 0 32 2.23858 32 5V27C32 29.7614 29.7614 32 27 32H5C2.23858 32 0 29.7614 0 27V5ZM16 8C20.4 8 24 11.6 24 16C24 20 21.1 23.4 17.1 24V18.3H19L19.4 16H17.2V14.5C17.2 13.9 17.5 13.3 18.5 13.3H19.5V11.3C19.5 11.3 18.6 11.1 17.7 11.1C15.9 11.1 14.7 12.2 14.7 14.2V16H12.7V18.3H14.7V23.9C10.9 23.3 8 20 8 16C8 11.6 11.6 8 16 8Z" />
        </symbol>

        <symbol id="icon-instagram" viewBox="0 0 32 32" xmlns="http://www.w3.org/2000/svg">
            <path
                d="M16 18.8C14.5 18.8 13.2 17.6 13.2 16C13.2 14.5 14.4 13.2 16 13.2C17.5 13.2 18.8 14.4 18.8 16C18.8 17.5 17.5 18.8 16 18.8Z" />
            <path fill-rule="evenodd" clip-rule="evenodd"
                d="M19.4 9.2H12.6C11.8 9.3 11.4 9.4 11.1 9.5C10.7 9.6 10.4 9.8 10.1 10.1C9.86261 10.3374 9.75045 10.5748 9.61489 10.8617C9.57916 10.9373 9.5417 11.0166 9.5 11.1C9.48453 11.1464 9.46667 11.1952 9.44752 11.2475C9.34291 11.5333 9.2 11.9238 9.2 12.6V19.4C9.3 20.2 9.4 20.6 9.5 20.9C9.6 21.3 9.8 21.6 10.1 21.9C10.3374 22.1374 10.5748 22.2495 10.8617 22.3851C10.9374 22.4209 11.0165 22.4583 11.1 22.5C11.1464 22.5155 11.1952 22.5333 11.2475 22.5525C11.5333 22.6571 11.9238 22.8 12.6 22.8H19.4C20.2 22.7 20.6 22.6 20.9 22.5C21.3 22.4 21.6 22.2 21.9 21.9C22.1374 21.6626 22.2495 21.4252 22.3851 21.1383C22.4209 21.0626 22.4583 20.9835 22.5 20.9C22.5155 20.8536 22.5333 20.8048 22.5525 20.7525C22.6571 20.4667 22.8 20.0762 22.8 19.4V12.6C22.7 11.8 22.6 11.4 22.5 11.1C22.4 10.7 22.2 10.4 21.9 10.1C21.6626 9.86261 21.4252 9.75045 21.1383 9.61488C21.0627 9.57918 20.9833 9.54167 20.9 9.5C20.8536 9.48453 20.8048 9.46666 20.7525 9.44752C20.4667 9.3429 20.0762 9.2 19.4 9.2ZM16 11.7C13.6 11.7 11.7 13.6 11.7 16C11.7 18.4 13.6 20.3 16 20.3C18.4 20.3 20.3 18.4 20.3 16C20.3 13.6 18.4 11.7 16 11.7ZM21.4 11.6C21.4 12.1523 20.9523 12.6 20.4 12.6C19.8477 12.6 19.4 12.1523 19.4 11.6C19.4 11.0477 19.8477 10.6 20.4 10.6C20.9523 10.6 21.4 11.0477 21.4 11.6Z" />
            <path fill-rule="evenodd" clip-rule="evenodd"
                d="M0 5C0 2.23858 2.23858 0 5 0H27C29.7614 0 32 2.23858 32 5V27C32 29.7614 29.7614 32 27 32H5C2.23858 32 0 29.7614 0 27V5ZM12.6 7.7H19.4C20.3 7.8 20.9 7.9 21.4 8.1C22 8.4 22.4 8.6 22.9 9.1C23.4 9.6 23.7 10.1 23.9 10.6C24.1 11.1 24.3 11.7 24.3 12.6V19.4C24.2 20.3 24.1 20.9 23.9 21.4C23.6 22 23.4 22.4 22.9 22.9C22.4 23.4 21.9 23.7 21.4 23.9C20.9 24.1 20.3 24.3 19.4 24.3H12.6C11.7 24.2 11.1 24.1 10.6 23.9C10 23.6 9.6 23.4 9.1 22.9C8.6 22.4 8.3 21.9 8.1 21.4C7.9 20.9 7.7 20.3 7.7 19.4V12.6C7.8 11.7 7.9 11.1 8.1 10.6C8.4 10 8.6 9.6 9.1 9.1C9.6 8.6 10.1 8.3 10.6 8.1C11.1 7.9 11.7 7.7 12.6 7.7Z" />
        </symbol>
    </defs>
</svg>